<svg width="14" height="9" viewBox="0 0 14 9" fill="none" xmlns="http://www.w3.org/2000/svg">
<path d="M7.51964 0.470102L13.4524 6.40282C13.5951 6.54554 13.6664 6.71883 13.6664 6.9227C13.6664 7.12658 13.5951 7.29987 13.4524 7.44258L12.7796 8.11536C12.6369 8.25807 12.4636 8.32943 12.2597 8.32943C12.0558 8.34982 11.8825 8.28865 11.7398 8.14594L6.99976 3.40588L2.2597 8.14594C2.11699 8.28865 1.9437 8.34982 1.73982 8.32943C1.53595 8.32943 1.36266 8.25807 1.21994 8.11536L0.547162 7.44258C0.404451 7.29987 0.333095 7.12657 0.333095 6.9227C0.333095 6.71883 0.404451 6.54553 0.547162 6.40282L6.47988 0.470102C6.6226 0.307003 6.79589 0.225454 6.99976 0.225454C7.20364 0.225454 7.37693 0.307003 7.51964 0.470102Z" fill="#1A2233"/>
</svg>
