<svg width="216" height="39" viewBox="0 0 216 39" fill="none" xmlns="http://www.w3.org/2000/svg">
<path d="M23.4091 37.0864L0.568182 24.2955V19.7273L23.4091 6.93636V11.2761L4.22273 22.0114L23.4091 32.7466V37.0864ZM43.9838 19.7273L49.0088 1.45454H57.6426L47.3642 19.7273H43.9838ZM30.2792 19.7273L35.3042 1.45454H43.9381L33.6597 19.7273H30.2792ZM76.4357 38.4568C72.1721 38.4568 68.9743 37.3757 66.8425 35.2134C64.7107 33.0207 63.6448 29.7316 63.6448 25.3461V14.2911C63.6448 9.84477 64.7107 6.52523 66.8425 4.3325C68.9743 2.10932 72.1873 0.997727 76.4814 0.997727C80.6841 0.997727 83.7905 1.9875 85.8005 3.96704C87.8409 5.91614 88.983 9.05295 89.2266 13.3775L84.6584 13.8343C84.3539 10.5452 83.6077 8.27636 82.42 7.02773C81.2627 5.74864 79.268 5.10909 76.4357 5.10909C73.4207 5.10909 71.2889 5.80954 70.0402 7.21045C68.8221 8.58091 68.213 10.9411 68.213 14.2911V25.3461C68.213 28.6352 68.8221 30.965 70.0402 32.3355C71.2889 33.6755 73.4207 34.3455 76.4357 34.3455C79.268 34.3455 81.2627 33.7364 82.42 32.5182C83.6077 31.2695 84.3539 29.0311 84.6584 25.803L89.2266 26.2598C88.983 30.5234 87.8409 33.6298 85.8005 35.5789C83.7905 37.4975 80.6689 38.4568 76.4357 38.4568ZM108.568 38.2741C105.827 38.2741 103.269 37.8325 100.893 36.9493C98.5179 36.0661 96.386 34.452 94.4979 32.107L97.7869 29.0007C99.066 30.7366 100.589 32.0309 102.355 32.8836C104.152 33.7364 106.269 34.1627 108.705 34.1627C110.959 34.1627 112.771 33.645 114.141 32.6095C115.542 31.5436 116.242 30.1123 116.242 28.3155C116.242 26.5795 115.649 25.2548 114.461 24.3411C113.273 23.397 110.928 22.4073 107.426 21.3718C102.979 20.0927 99.9492 18.707 98.3351 17.2148C96.721 15.7225 95.914 13.6059 95.914 10.865C95.914 7.69773 96.9647 5.30705 99.066 3.69295C101.198 2.07886 103.771 1.27182 106.786 1.27182C109.344 1.27182 111.766 1.72864 114.05 2.64227C116.364 3.52545 118.405 5.10909 120.171 7.39318L117.019 10.5452C115.801 8.80932 114.278 7.515 112.451 6.66227C110.624 5.80955 108.766 5.38318 106.878 5.38318C104.959 5.38318 103.421 5.77909 102.264 6.57091C101.106 7.33227 100.528 8.62659 100.528 10.4539C100.528 12.068 101.152 13.347 102.401 14.2911C103.68 15.2048 106.177 16.1945 109.893 17.2605C114.095 18.4786 116.958 19.8186 118.481 21.2805C120.034 22.7118 120.811 24.798 120.811 27.5389C120.811 31.0411 119.562 33.7059 117.065 35.5332C114.567 37.3605 111.735 38.2741 108.568 38.2741ZM140.563 38.2741C137.822 38.2741 135.264 37.8325 132.888 36.9493C130.513 36.0661 128.381 34.452 126.493 32.107L129.782 29.0007C131.061 30.7366 132.584 32.0309 134.35 32.8836C136.147 33.7364 138.264 34.1627 140.7 34.1627C142.954 34.1627 144.766 33.645 146.136 32.6095C147.537 31.5436 148.238 30.1123 148.238 28.3155C148.238 26.5795 147.644 25.2548 146.456 24.3411C145.268 23.397 142.923 22.4073 139.421 21.3718C134.975 20.0927 131.944 18.707 130.33 17.2148C128.716 15.7225 127.909 13.6059 127.909 10.865C127.909 7.69773 128.96 5.30705 131.061 3.69295C133.193 2.07886 135.766 1.27182 138.781 1.27182C141.34 1.27182 143.761 1.72864 146.045 2.64227C148.359 3.52545 150.4 5.10909 152.166 7.39318L149.014 10.5452C147.796 8.80932 146.273 7.515 144.446 6.66227C142.619 5.80955 140.761 5.38318 138.873 5.38318C136.954 5.38318 135.416 5.77909 134.259 6.57091C133.102 7.33227 132.523 8.62659 132.523 10.4539C132.523 12.068 133.147 13.347 134.396 14.2911C135.675 15.2048 138.172 16.1945 141.888 17.2605C146.09 18.4786 148.953 19.8186 150.476 21.2805C152.029 22.7118 152.806 24.798 152.806 27.5389C152.806 31.0411 151.557 33.7059 149.06 35.5332C146.563 37.3605 143.73 38.2741 140.563 38.2741ZM171.964 19.7273L176.989 1.45454H185.623L175.345 19.7273H171.964ZM158.26 19.7273L163.285 1.45454H171.919L161.64 19.7273H158.26ZM192.539 37.0864V32.7466L211.725 22.0114L192.539 11.2761V6.93636L215.38 19.7273V24.2955L192.539 37.0864Z" fill="white"/>
</svg>
