<svg width="48" height="49" viewBox="0 0 48 49" fill="none" xmlns="http://www.w3.org/2000/svg">
<g clip-path="url(#clip0_1647_1183)">
<circle cx="24" cy="24.2422" r="24" fill="#101010"/>
<path d="M34.0086 24.3033C34.0086 18.7467 29.5295 14.2422 24.0043 14.2422C18.4791 14.2422 14 18.7467 14 24.3033C14 29.3251 17.6584 33.4874 22.4411 34.2422V27.2116H19.901V24.3033H22.4411V22.0867C22.4411 19.5651 23.9347 18.1723 26.2199 18.1723C27.3144 18.1723 28.4593 18.3688 28.4593 18.3688V20.8448H27.1978C25.955 20.8448 25.5675 21.6203 25.5675 22.416V24.3033H28.3421L27.8985 27.2116H25.5675V34.2422C30.3501 33.4874 34.0086 29.3251 34.0086 24.3033Z" fill="white"/>
</g>
<defs>
<clipPath id="clip0_1647_1183">
<rect width="48" height="48" fill="white" transform="translate(0 0.242188)"/>
</clipPath>
</defs>
</svg>
