<svg width="48" height="49" viewBox="0 0 48 49" fill="none" xmlns="http://www.w3.org/2000/svg">
<g clip-path="url(#clip0_1647_1195)">
<circle cx="24" cy="24.2422" r="24" fill="#101010"/>
<path d="M20.6935 29.9277C20.6935 30.0352 20.6129 30.1024 20.4516 30.1293C20.3172 30.1293 20.25 30.0755 20.25 29.968C20.25 29.8605 20.3172 29.8067 20.4516 29.8067C20.5323 29.8067 20.586 29.8201 20.6129 29.847C20.6667 29.8739 20.6935 29.9008 20.6935 29.9277ZM19.4435 29.7664C19.4167 29.7933 19.4167 29.8336 19.4435 29.8874C19.4973 29.9142 19.5511 29.9411 19.6048 29.968C19.6586 29.9949 19.7124 29.9949 19.7661 29.968C19.8199 29.9411 19.8468 29.9008 19.8468 29.847C19.8737 29.7664 19.8199 29.7126 19.6855 29.6857C19.5511 29.632 19.4704 29.6589 19.4435 29.7664ZM21.2177 29.6857C21.0833 29.7126 21.0161 29.7664 21.0161 29.847C21.043 29.9277 21.0699 29.9814 21.0968 30.0083C21.1505 30.0083 21.2043 30.0083 21.2581 30.0083C21.3925 29.9546 21.4462 29.8874 21.4194 29.8067C21.4194 29.7261 21.3522 29.6857 21.2177 29.6857ZM23.879 14.2422C22.0242 14.2422 20.3441 14.6723 18.8387 15.5325C17.3333 16.3927 16.1505 17.5755 15.2903 19.0809C14.4301 20.5863 14 22.2529 14 24.0809C14 26.3121 14.6317 28.3148 15.8952 30.089C17.1586 31.8363 18.8118 33.046 20.8548 33.718C21.0699 33.7718 21.2312 33.7449 21.3387 33.6374C21.4731 33.5298 21.5403 33.3954 21.5403 33.2341L21.5 30.7744L21.0565 30.8148C20.707 30.8685 20.371 30.882 20.0484 30.8551C19.5914 30.8013 19.2016 30.6804 18.879 30.4922C18.5027 30.2771 18.2473 29.968 18.1129 29.5648L17.9516 29.2422C17.8441 29.0003 17.7097 28.7852 17.5484 28.597C17.3602 28.3551 17.172 28.1804 16.9839 28.0728L16.7823 27.9115C16.6478 27.804 16.5806 27.7099 16.5806 27.6293C16.6075 27.5218 16.7688 27.468 17.0645 27.468L17.3468 27.5083C17.5618 27.589 17.7634 27.6831 17.9516 27.7906C18.2204 27.9787 18.4355 28.2207 18.5968 28.5164C18.9731 29.1884 19.5108 29.5513 20.2097 29.6051C20.6398 29.6589 21.0833 29.5782 21.5403 29.3632C21.621 28.7718 21.836 28.3148 22.1855 27.9922C21.2177 27.8847 20.4919 27.7503 20.0081 27.589C19.2554 27.3201 18.6909 26.9035 18.3145 26.339C17.8844 25.6669 17.6694 24.7261 17.6694 23.5164C17.6694 23.0056 17.7366 22.589 17.871 22.2664C18.0323 21.9169 18.2742 21.5406 18.5968 21.1374C18.4892 20.8954 18.4355 20.5863 18.4355 20.2099C18.3817 19.6185 18.4758 19.0271 18.7177 18.4357C18.9597 18.3551 19.3226 18.4089 19.8065 18.597C20.1559 18.7314 20.5457 18.9196 20.9758 19.1615L21.5 19.5244C22.3065 19.2825 23.1398 19.1615 24 19.1615C24.8871 19.1615 25.7473 19.2825 26.5806 19.5244L27.1048 19.1615C27.5349 18.9196 27.9113 18.7314 28.2339 18.597C28.7177 18.4089 29.0941 18.3551 29.3629 18.4357C29.578 19.0271 29.672 19.6185 29.6452 20.2099C29.6183 20.5863 29.5511 20.9089 29.4435 21.1777C29.8199 21.5809 30.0753 21.9169 30.2097 22.1857C30.3979 22.5621 30.4919 23.0056 30.4919 23.5164C30.4919 24.7261 30.2634 25.6804 29.8065 26.3793C29.4032 26.9169 28.8253 27.3201 28.0726 27.589C27.5887 27.7503 26.8495 27.8847 25.8548 27.9922C26.3118 28.3685 26.5403 28.9868 26.5403 29.847V33.2341C26.5403 33.3954 26.5941 33.5298 26.7016 33.6374C26.836 33.7449 27.0108 33.7718 27.2258 33.718C29.2419 33.046 30.8683 31.8363 32.1048 30.089C33.3683 28.3148 34 26.3121 34 24.0809C34 22.2529 33.543 20.5728 32.629 19.0406C31.7419 17.5621 30.5188 16.3927 28.9597 15.5325C27.4005 14.6723 25.707 14.2422 23.879 14.2422ZM17.9113 28.1535C17.8575 28.2072 17.871 28.2744 17.9516 28.3551C18.0323 28.4357 18.0995 28.4492 18.1532 28.3954C18.207 28.3417 18.1935 28.2744 18.1129 28.1938C18.0323 28.1132 17.9651 28.0997 17.9113 28.1535ZM17.4677 27.8309C17.4409 27.8847 17.4677 27.9384 17.5484 27.9922C17.6559 28.046 17.7231 28.046 17.75 27.9922C17.7769 27.9115 17.75 27.8578 17.6694 27.8309C17.5887 27.7771 17.5215 27.7771 17.4677 27.8309ZM18.7984 29.2422C18.7715 29.2691 18.7581 29.3094 18.7581 29.3632C18.7581 29.4169 18.7849 29.4707 18.8387 29.5244C18.9462 29.632 19.0403 29.6454 19.121 29.5648C19.1478 29.5379 19.1478 29.4976 19.121 29.4438C19.121 29.39 19.0941 29.3497 19.0403 29.3228C19.0134 29.2691 18.9731 29.2422 18.9194 29.2422C18.8656 29.2153 18.8253 29.2153 18.7984 29.2422ZM18.3145 28.6777C18.2608 28.7046 18.2608 28.7852 18.3145 28.9196C18.3683 28.9465 18.4086 28.9734 18.4355 29.0003C18.4892 29.0271 18.5296 29.0271 18.5565 29.0003C18.6371 28.9465 18.6371 28.8658 18.5565 28.7583C18.5296 28.7046 18.4892 28.6777 18.4355 28.6777C18.4086 28.6508 18.3683 28.6508 18.3145 28.6777Z" fill="white"/>
</g>
<defs>
<clipPath id="clip0_1647_1195">
<rect width="48" height="48" fill="white" transform="translate(0 0.242188)"/>
</clipPath>
</defs>
</svg>
