<svg width="24" height="20" viewBox="0 0 24 20" fill="none" xmlns="http://www.w3.org/2000/svg">
<path d="M23.0418 2.91667H0.958496C0.784885 2.91667 0.628635 2.86458 0.489746 2.76042C0.385579 2.62153 0.333496 2.46528 0.333496 2.29167V0.625C0.333496 0.451389 0.385579 0.3125 0.489746 0.208333C0.628635 0.0694444 0.784885 0 0.958496 0H23.0418C23.2154 0 23.3543 0.0694444 23.4585 0.208333C23.5974 0.3125 23.6668 0.451389 23.6668 0.625V2.29167C23.6668 2.46528 23.5974 2.62153 23.4585 2.76042C23.3543 2.86458 23.2154 2.91667 23.0418 2.91667ZM23.0418 11.25H0.958496C0.784885 11.25 0.628635 11.1979 0.489746 11.0938C0.385579 10.9549 0.333496 10.7986 0.333496 10.625V8.95833C0.333496 8.78472 0.385579 8.64583 0.489746 8.54167C0.628635 8.40278 0.784885 8.33333 0.958496 8.33333H23.0418C23.2154 8.33333 23.3543 8.40278 23.4585 8.54167C23.5974 8.64583 23.6668 8.78472 23.6668 8.95833V10.625C23.6668 10.7986 23.5974 10.9549 23.4585 11.0938C23.3543 11.1979 23.2154 11.25 23.0418 11.25ZM23.0418 19.5833H0.958496C0.784885 19.5833 0.628635 19.5312 0.489746 19.4271C0.385579 19.2882 0.333496 19.1319 0.333496 18.9583V17.2917C0.333496 17.1181 0.385579 16.9792 0.489746 16.875C0.628635 16.7361 0.784885 16.6667 0.958496 16.6667H23.0418C23.2154 16.6667 23.3543 16.7361 23.4585 16.875C23.5974 16.9792 23.6668 17.1181 23.6668 17.2917V18.9583C23.6668 19.1319 23.5974 19.2882 23.4585 19.4271C23.3543 19.5312 23.2154 19.5833 23.0418 19.5833Z" fill="#1A2233"/>
</svg>
