<svg width="48" height="49" viewBox="0 0 48 49" fill="none" xmlns="http://www.w3.org/2000/svg">
<g clip-path="url(#clip0_1647_1191)">
<circle cx="24" cy="24.2422" r="24" fill="#101010"/>
<path d="M24 19.1083C23.0774 19.1083 22.2143 19.3464 21.4107 19.8225C20.6369 20.269 20.0119 20.894 19.5357 21.6975C19.0893 22.4714 18.8661 23.3196 18.8661 24.2422C18.8661 25.1648 19.0893 26.0279 19.5357 26.8315C20.0119 27.6053 20.6369 28.2303 21.4107 28.7065C22.2143 29.1529 23.0774 29.3761 24 29.3761C24.9226 29.3761 25.7708 29.1529 26.5446 28.7065C27.3482 28.2303 27.9732 27.6053 28.4196 26.8315C28.8958 26.0279 29.1339 25.1648 29.1339 24.2422C29.1339 23.3196 28.8958 22.4714 28.4196 21.6975C27.9732 20.894 27.3482 20.269 26.5446 19.8225C25.7708 19.3464 24.9226 19.1083 24 19.1083ZM24 27.5904C23.0774 27.5904 22.2887 27.263 21.6339 26.6083C20.9792 25.9535 20.6518 25.1648 20.6518 24.2422C20.6518 23.3196 20.9792 22.5309 21.6339 21.8761C22.2887 21.2214 23.0774 20.894 24 20.894C24.9226 20.894 25.7113 21.2214 26.3661 21.8761C27.0208 22.5309 27.3482 23.3196 27.3482 24.2422C27.3482 25.1648 27.0208 25.9535 26.3661 26.6083C25.7113 27.263 24.9226 27.5904 24 27.5904ZM30.5625 18.885C30.5327 19.2124 30.3988 19.4952 30.1607 19.7333C29.9524 19.9714 29.6845 20.0904 29.3571 20.0904C29.0298 20.0904 28.747 19.9714 28.5089 19.7333C28.2708 19.4952 28.1518 19.2124 28.1518 18.885C28.1518 18.5577 28.2708 18.2749 28.5089 18.0368C28.747 17.7987 29.0298 17.6797 29.3571 17.6797C29.6845 17.6797 29.9673 17.7987 30.2054 18.0368C30.4435 18.2749 30.5625 18.5577 30.5625 18.885ZM33.9554 20.0904C33.8958 19.2273 33.7619 18.4833 33.5536 17.8583C33.2857 17.1142 32.869 16.4743 32.3036 15.9386C31.7679 15.3731 31.128 14.9565 30.3839 14.6886C29.7589 14.4803 29.0149 14.3612 28.1518 14.3315C27.3185 14.2719 25.9345 14.2422 24 14.2422C22.0655 14.2422 20.6667 14.2719 19.8036 14.3315C18.9702 14.3612 18.2411 14.4803 17.6161 14.6886C16.872 14.9565 16.2173 15.3731 15.6518 15.9386C15.1161 16.4743 14.7143 17.1142 14.4464 17.8583C14.2381 18.4833 14.1042 19.2273 14.0446 20.0904C14.0149 20.9237 14 22.3077 14 24.2422C14 26.1767 14.0149 27.5755 14.0446 28.4386C14.1042 29.2719 14.2381 30.0011 14.4464 30.6261C14.7143 31.3702 15.1161 32.0249 15.6518 32.5904C16.2173 33.1261 16.872 33.513 17.6161 33.7511C18.2411 33.9892 18.9702 34.1231 19.8036 34.1529C20.6667 34.2124 22.0655 34.2422 24 34.2422C25.9345 34.2422 27.3185 34.2124 28.1518 34.1529C29.0149 34.1231 29.7589 34.0041 30.3839 33.7958C31.128 33.5279 31.7679 33.1261 32.3036 32.5904C32.869 32.0249 33.2857 31.3702 33.5536 30.6261C33.7619 30.0011 33.881 29.2719 33.9107 28.4386C33.9702 27.5755 34 26.1767 34 24.2422C34 22.3077 33.9851 20.9237 33.9554 20.0904ZM31.8125 30.135C31.4554 31.0279 30.8155 31.6678 29.8929 32.0547C29.4167 32.2333 28.6131 32.3523 27.4821 32.4118C26.8571 32.4416 25.9345 32.4565 24.7143 32.4565H23.2857C22.0952 32.4565 21.1726 32.4416 20.5179 32.4118C19.4167 32.3523 18.6131 32.2333 18.1071 32.0547C17.2143 31.6975 16.5744 31.0577 16.1875 30.135C16.0089 29.6291 15.8899 28.8255 15.8304 27.7243C15.8006 27.0696 15.7857 26.1469 15.7857 24.9565V23.5279C15.7857 22.3374 15.8006 21.4148 15.8304 20.76C15.8899 19.6291 16.0089 18.8255 16.1875 18.3493C16.5446 17.4267 17.1845 16.7868 18.1071 16.4297C18.6131 16.2511 19.4167 16.1321 20.5179 16.0725C21.1726 16.0428 22.0952 16.0279 23.2857 16.0279H24.7143C25.9048 16.0279 26.8274 16.0428 27.4821 16.0725C28.6131 16.1321 29.4167 16.2511 29.8929 16.4297C30.8155 16.7868 31.4554 17.4267 31.8125 18.3493C31.9911 18.8255 32.1101 19.6291 32.1696 20.76C32.1994 21.385 32.2143 22.3077 32.2143 23.5279V24.9565C32.2143 26.1469 32.1994 27.0696 32.1696 27.7243C32.1101 28.8255 31.9911 29.6291 31.8125 30.135Z" fill="white"/>
</g>
<defs>
<clipPath id="clip0_1647_1191">
<rect width="48" height="48" fill="white" transform="translate(0 0.242188)"/>
</clipPath>
</defs>
</svg>
