<svg width="48" height="49" viewBox="0 0 48 49" fill="none" xmlns="http://www.w3.org/2000/svg">
<g clip-path="url(#clip0_1647_1187)">
<circle cx="24" cy="24.2422" r="24" fill="#101010"/>
<path d="M31.7143 15.2422H16.2857C15.9375 15.2422 15.6295 15.3761 15.3616 15.644C15.1205 15.885 15 16.1797 15 16.5279V31.9565C15 32.3047 15.1205 32.5993 15.3616 32.8404C15.6295 33.1083 15.9375 33.2422 16.2857 33.2422H31.7143C32.0625 33.2422 32.3571 33.1083 32.5982 32.8404C32.8661 32.5993 33 32.3047 33 31.9565V16.5279C33 16.1797 32.8661 15.885 32.5982 15.644C32.3571 15.3761 32.0625 15.2422 31.7143 15.2422ZM17.7723 30.6708V22.0725H20.4643V30.6708H17.7723ZM19.0982 20.9074C18.6696 20.9074 18.308 20.76 18.0134 20.4654C17.7188 20.144 17.5714 19.7824 17.5714 19.3806C17.5714 18.952 17.7188 18.5904 18.0134 18.2958C18.308 17.9743 18.6696 17.8136 19.0982 17.8136C19.5268 17.8136 19.8884 17.9743 20.183 18.2958C20.5045 18.5904 20.6652 18.952 20.6652 19.3806C20.6652 19.7824 20.5045 20.144 20.183 20.4654C19.8884 20.76 19.5268 20.9074 19.0982 20.9074ZM30.4286 30.6708H27.7768V26.4922C27.7768 25.7958 27.7098 25.2868 27.5759 24.9654C27.3884 24.4565 26.9866 24.202 26.3705 24.202C25.7545 24.202 25.3125 24.4297 25.0446 24.885C24.8571 25.2333 24.7634 25.7422 24.7634 26.4118V30.6708H22.1116V22.0725H24.683V23.2377H24.7232C24.9107 22.8627 25.2054 22.5547 25.6071 22.3136C26.0893 22.019 26.6384 21.8717 27.2545 21.8717C28.4866 21.8717 29.3571 22.26 29.8661 23.0368C30.2411 23.6529 30.4286 24.6306 30.4286 25.9699V30.6708Z" fill="white"/>
</g>
<defs>
<clipPath id="clip0_1647_1187">
<rect width="48" height="48" fill="white" transform="translate(0 0.242188)"/>
</clipPath>
</defs>
</svg>
