<svg width="134" height="16" viewBox="0 0 134 16" fill="none" xmlns="http://www.w3.org/2000/svg">
<path d="M11.032 0.647999L3.232 15H0.472L8.296 0.647999H11.032ZM21.6586 0.647999L13.8586 15H11.0986L18.9226 0.647999H21.6586ZM89.3059 12.672C88.7459 13.648 88.1459 14.352 87.5059 14.784C87.1219 15.024 86.7699 15.144 86.4499 15.144H83.0659C82.7299 15.144 82.3699 15.024 81.9859 14.784C81.7939 14.672 81.5219 14.432 81.1699 14.064C80.8179 13.68 80.5779 13.384 80.4499 13.176C80.2739 12.92 80.1859 12.576 80.1859 12.144V3.624C80.1859 3.208 80.2739 2.864 80.4499 2.592C80.5779 2.384 80.8179 2.088 81.1699 1.704C81.5379 1.32 81.8099 1.072 81.9859 0.959999C82.3379 0.719999 82.6899 0.599999 83.0419 0.599999H86.4499C86.7699 0.599999 87.1219 0.719999 87.5059 0.959999C88.1459 1.392 88.7459 2.096 89.3059 3.072L88.4659 3.336C88.2739 2.984 88.0179 2.632 87.6979 2.28C87.3779 1.928 87.0899 1.68 86.8339 1.536C86.7059 1.472 86.5539 1.44 86.3779 1.44H83.0899C82.9459 1.44 82.8099 1.472 82.6819 1.536C82.4579 1.664 82.1859 1.888 81.8659 2.208C81.5619 2.528 81.3299 2.832 81.1699 3.12C81.0899 3.248 81.0499 3.432 81.0499 3.672V12.144C81.0499 12.272 81.0899 12.416 81.1699 12.576C81.3299 12.864 81.5699 13.176 81.8899 13.512C82.2259 13.848 82.5059 14.08 82.7299 14.208C82.8579 14.272 82.9939 14.304 83.1379 14.304H86.4019C86.5619 14.304 86.7059 14.272 86.8339 14.208C87.0739 14.064 87.3459 13.816 87.6499 13.464C87.9699 13.096 88.2259 12.752 88.4179 12.432L89.3059 12.672ZM104.752 12.12C104.752 12.568 104.664 12.92 104.488 13.176C104.36 13.384 104.12 13.68 103.768 14.064C103.416 14.432 103.144 14.672 102.952 14.784C102.568 15.024 102.208 15.144 101.872 15.144H97.8404C97.5204 15.144 97.1684 15.024 96.7844 14.784C96.5924 14.656 96.3124 14.408 95.9444 14.04C95.5764 13.656 95.3364 13.368 95.2244 13.176C95.0644 12.936 94.9844 12.584 94.9844 12.12V3.648C94.9844 3.232 95.0644 2.888 95.2244 2.616C95.3524 2.424 95.5924 2.136 95.9444 1.752C96.3124 1.352 96.5924 1.088 96.7844 0.959999C97.1364 0.719999 97.4884 0.599999 97.8404 0.599999H101.872C102.24 0.599999 102.6 0.719999 102.952 0.959999C103.144 1.088 103.416 1.344 103.768 1.728C104.12 2.112 104.36 2.4 104.488 2.592C104.664 2.896 104.752 3.248 104.752 3.648V12.12ZM103.888 12.12V3.624C103.888 3.416 103.856 3.256 103.792 3.144C103.632 2.856 103.384 2.552 103.048 2.232C102.728 1.896 102.456 1.664 102.232 1.536C102.104 1.472 101.96 1.44 101.8 1.44H97.9364C97.7924 1.44 97.6564 1.472 97.5284 1.536C97.3044 1.664 97.0244 1.896 96.6884 2.232C96.3684 2.552 96.1284 2.856 95.9684 3.144C95.8884 3.272 95.8484 3.432 95.8484 3.624V12.144C95.8484 12.336 95.8804 12.488 95.9444 12.6C96.1044 12.856 96.3604 13.16 96.7124 13.512C97.0804 13.864 97.3524 14.096 97.5284 14.208C97.6564 14.272 97.7924 14.304 97.9364 14.304H101.8C101.96 14.304 102.104 14.272 102.232 14.208C102.456 14.08 102.728 13.856 103.048 13.536C103.368 13.2 103.616 12.888 103.792 12.6C103.856 12.488 103.888 12.328 103.888 12.12ZM119.84 12C119.84 12.384 119.752 12.728 119.576 13.032C119.432 13.272 119.192 13.568 118.856 13.92C118.536 14.256 118.264 14.496 118.04 14.64C117.656 14.88 117.304 15 116.984 15H110.744V0.743999H116.984C117.352 0.743999 117.704 0.855999 118.04 1.08C118.232 1.192 118.504 1.448 118.856 1.848C119.208 2.232 119.448 2.528 119.576 2.736C119.752 3.04 119.84 3.384 119.84 3.768V12ZM118.976 12V3.792C118.976 3.584 118.944 3.424 118.88 3.312C118.704 3.008 118.464 2.688 118.16 2.352C117.856 2.016 117.6 1.792 117.392 1.68C117.264 1.616 117.12 1.584 116.96 1.584H111.608V14.16H116.888C117.048 14.16 117.192 14.128 117.32 14.064C117.544 13.936 117.816 13.704 118.136 13.368C118.472 13.032 118.72 12.72 118.88 12.432C118.944 12.304 118.976 12.16 118.976 12ZM133.719 15H125.847V0.743999H133.719V1.584H126.711V7.392H133.263V8.232H126.711V14.16H133.719V15Z" fill="black"/>
<path d="M35.2277 3.048H31.3397V15H28.8197V3.048H24.9317V0.647999H35.2277V3.048ZM50.3695 6.072C50.3695 6.616 50.2255 7.104 49.9375 7.536C49.8255 7.696 49.6255 7.92 49.3375 8.208C49.0495 8.48 48.8175 8.68 48.6415 8.808C48.4335 8.968 48.2255 9.08 48.0175 9.144L50.8735 15H48.1375L45.4735 9.336H42.7135V15H40.1935V0.647999H46.9375C47.5775 0.647999 48.1455 0.823999 48.6415 1.176C48.8015 1.288 49.0255 1.496 49.3135 1.8C49.6175 2.104 49.8255 2.336 49.9375 2.496C50.2255 2.928 50.3695 3.416 50.3695 3.96V6.072ZM47.8495 6.048V3.984C47.8495 3.904 47.8415 3.848 47.8255 3.816C47.5535 3.336 47.2975 3.08 47.0575 3.048H42.7135V6.936H46.9375C47.0495 6.936 47.2015 6.848 47.3935 6.672C47.5855 6.496 47.7295 6.32 47.8255 6.144C47.8415 6.112 47.8495 6.08 47.8495 6.048ZM59.0119 15H56.4919V0.647999H59.0119V15ZM75.3085 0.647999L70.9645 7.656L75.5485 15H72.7405L69.5725 9.888L66.4285 15H63.6205L68.1805 7.656L63.8605 0.647999H66.6445L69.5725 5.424L72.5245 0.647999H75.3085Z" fill="#F25B27"/>
</svg>
