<svg width="16" height="12" viewBox="0 0 16 12" fill="none" xmlns="http://www.w3.org/2000/svg">
<path d="M13.8138 0.264404L5.2526 8.85815L2.09505 5.7006C2.02995 5.6138 1.94314 5.57039 1.83464 5.57039C1.72613 5.57039 1.62847 5.6138 1.54167 5.7006L0.630208 6.61206C0.543403 6.69887 0.5 6.79652 0.5 6.90503C0.5 7.01354 0.543403 7.10034 0.630208 7.16545L4.95964 11.5274C5.04644 11.5925 5.1441 11.6251 5.2526 11.6251C5.36111 11.6251 5.44792 11.5925 5.51302 11.5274L15.2786 1.7618C15.3655 1.67499 15.4089 1.57734 15.4089 1.46883C15.4089 1.36032 15.3655 1.27352 15.2786 1.20841L14.3672 0.264404C14.2804 0.1993 14.1827 0.166748 14.0742 0.166748C13.9657 0.166748 13.8789 0.1993 13.8138 0.264404Z" fill="white"/>
</svg>
