<svg width="217" height="84" viewBox="0 0 217 84" fill="none" xmlns="http://www.w3.org/2000/svg">
<path d="M23.92 41.2C28.72 41.2 32.6133 42.7733 35.6 45.92C38.5867 49.0667 40.08 53.0667 40.08 57.92C40.08 63.04 38.4 67.1467 35.04 70.24C31.68 73.28 27.3867 74.8 22.16 74.8C17.2 74.8 13.2 73.4133 10.16 70.64C7.17333 67.8667 5.54667 64.16 5.28 59.52H12.08C12.3467 62.5067 13.3867 64.8533 15.2 66.56C17.0133 68.2133 19.36 69.04 22.24 69.04C25.44 69.04 28.0267 68.0533 30 66.08C31.9733 64.1067 32.96 61.44 32.96 58.08C32.96 54.7733 32 52.0533 30.08 49.92C28.2133 47.7333 25.7333 46.64 22.64 46.64C18.1067 46.64 14.7733 48.5067 12.64 52.24L6.4 50.88L9.12 22.8H37.76V28.8H15.28L13.52 44.8C16.24 42.4 19.7067 41.2 23.92 41.2ZM68.615 74.8C62.855 74.8 58.2417 72.5867 54.775 68.16C51.3617 63.68 49.655 57.0667 49.655 48.32C49.655 39.68 51.3617 33.12 54.775 28.64C58.2417 24.16 62.855 21.92 68.615 21.92C74.375 21.92 78.935 24.1867 82.295 28.72C85.7083 33.2 87.415 39.7867 87.415 48.48C87.415 57.1733 85.7083 63.7333 82.295 68.16C78.8817 72.5867 74.3217 74.8 68.615 74.8ZM68.615 68.64C72.0283 68.64 74.775 66.96 76.855 63.6C78.9883 60.1867 80.055 55.12 80.055 48.4C80.055 41.68 78.9883 36.6133 76.855 33.2C74.7217 29.7867 71.9483 28.08 68.535 28.08C65.1217 28.08 62.3483 29.7867 60.215 33.2C58.135 36.56 57.095 41.6267 57.095 48.4C57.095 55.1733 58.135 60.24 60.215 63.6C62.3483 66.96 65.1483 68.64 68.615 68.64ZM132.437 61.12C132.437 65.0667 131.104 68.2133 128.437 70.56C125.77 72.8533 122.33 74.2133 118.117 74.64V81.2H112.277V74.64C107.69 74.16 104.064 72.5867 101.397 69.92C98.7835 67.2533 97.3435 63.68 97.0769 59.2H104.357C104.944 64.48 107.584 67.5733 112.277 68.48V50.16L110.517 49.52C106.677 48.1333 103.717 46.4 101.637 44.32C99.6102 42.24 98.5969 39.44 98.5969 35.92C98.5969 32.1867 99.8502 29.12 102.357 26.72C104.917 24.2667 108.224 22.7733 112.277 22.24V15.6H118.117V22.16C122.33 22.64 125.69 24.1867 128.197 26.8C130.757 29.36 132.144 32.6133 132.357 36.56H125.477C124.944 31.92 122.49 29.1733 118.117 28.32V45.36L119.717 45.92C124.037 47.4667 127.237 49.44 129.317 51.84C131.397 54.24 132.437 57.3333 132.437 61.12ZM105.877 35.52C105.877 37.28 106.384 38.7733 107.397 40C108.464 41.1733 110.09 42.24 112.277 43.2V28.4C110.357 28.88 108.81 29.76 107.637 31.04C106.464 32.32 105.877 33.8133 105.877 35.52ZM118.117 68.56C120.144 68.1867 121.797 67.3867 123.077 66.16C124.41 64.88 125.077 63.2533 125.077 61.28C125.077 57.3333 122.757 54.3467 118.117 52.32V68.56Z" fill="#1A2233"/>
<path d="M153.84 62L148.288 74.8H146.336L151.904 62H153.84ZM159.364 74V66H161.236L161.412 66.944H161.54C162.074 66.208 162.804 65.84 163.732 65.84C164.735 65.84 165.434 66.2613 165.828 67.104H165.956C166.543 66.2613 167.375 65.84 168.452 65.84C169.295 65.84 169.956 66.0907 170.436 66.592C170.916 67.0933 171.156 67.8187 171.156 68.768V74H169.108V69.152C169.108 68.6613 168.98 68.2827 168.724 68.016C168.468 67.7493 168.138 67.616 167.732 67.616C167.295 67.616 166.943 67.7653 166.676 68.064C166.41 68.3627 166.276 68.7627 166.276 69.264V74H164.228V69.216C164.228 68.704 164.1 68.3093 163.844 68.032C163.599 67.7547 163.274 67.616 162.868 67.616C162.474 67.616 162.132 67.76 161.844 68.048C161.556 68.3253 161.412 68.7253 161.412 69.248V74H159.364ZM178.45 71.472H180.418C180.258 72.304 179.847 72.96 179.186 73.44C178.535 73.92 177.703 74.16 176.69 74.16C175.485 74.16 174.498 73.7867 173.73 73.04C172.962 72.2827 172.578 71.296 172.578 70.08C172.578 68.8 172.962 67.776 173.73 67.008C174.509 66.2293 175.469 65.84 176.61 65.84C177.677 65.84 178.573 66.1867 179.298 66.88C180.034 67.5733 180.402 68.5973 180.402 69.952C180.402 70.048 180.391 70.2453 180.37 70.544H174.61C174.653 71.1307 174.855 71.6107 175.218 71.984C175.591 72.3467 176.082 72.528 176.69 72.528C177.639 72.528 178.226 72.176 178.45 71.472ZM176.61 67.472C176.077 67.472 175.629 67.632 175.266 67.952C174.914 68.272 174.701 68.6773 174.626 69.168H178.45C178.429 68.6667 178.247 68.2613 177.906 67.952C177.565 67.632 177.133 67.472 176.61 67.472ZM185.146 74.16C184.047 74.16 183.194 73.92 182.586 73.44C181.978 72.9493 181.647 72.2827 181.594 71.44H183.562C183.668 72.24 184.191 72.64 185.13 72.64C185.471 72.64 185.748 72.576 185.962 72.448C186.186 72.3093 186.298 72.1013 186.298 71.824C186.298 71.536 186.18 71.3173 185.946 71.168C185.722 71.008 185.37 70.864 184.89 70.736L184.138 70.544C183.818 70.4693 183.54 70.3893 183.306 70.304C183.082 70.208 182.847 70.08 182.602 69.92C182.356 69.7493 182.17 69.5307 182.042 69.264C181.914 68.9867 181.85 68.6613 181.85 68.288C181.85 67.52 182.138 66.9227 182.714 66.496C183.29 66.0587 183.999 65.84 184.842 65.84C185.866 65.84 186.65 66.0693 187.194 66.528C187.738 66.9867 188.042 67.5733 188.106 68.288H186.138C186.052 67.6693 185.626 67.36 184.858 67.36C184.538 67.36 184.282 67.4347 184.09 67.584C183.898 67.7227 183.802 67.92 183.802 68.176C183.802 68.432 183.898 68.6187 184.09 68.736C184.292 68.8427 184.634 68.96 185.114 69.088L185.866 69.28C186.634 69.472 187.22 69.76 187.626 70.144C188.042 70.528 188.25 71.072 188.25 71.776C188.25 72.5653 187.956 73.1627 187.37 73.568C186.794 73.9627 186.052 74.16 185.146 74.16Z" fill="#1A2233"/>
<path d="M207 60.5C205.649 60.5 204.399 60.8427 203.25 61.5282C202.101 62.1935 201.183 63.1008 200.498 64.25C199.833 65.3992 199.5 66.6492 199.5 68C199.5 69.3508 199.833 70.6008 200.498 71.75C201.183 72.8992 202.101 73.8065 203.25 74.4718C204.399 75.1573 205.649 75.5 207 75.5C208.351 75.5 209.601 75.1573 210.75 74.4718C211.899 73.8065 212.806 72.8992 213.472 71.75C214.157 70.6008 214.5 69.3508 214.5 68C214.5 66.6492 214.157 65.3992 213.472 64.25C212.806 63.1008 211.899 62.1935 210.75 61.5282C209.601 60.8427 208.351 60.5 207 60.5ZM207 63.8266C207.343 63.8266 207.635 63.9577 207.877 64.2198C208.139 64.4617 208.27 64.754 208.27 65.0968C208.27 65.4395 208.139 65.7419 207.877 66.004C207.635 66.246 207.343 66.3669 207 66.3669C206.657 66.3669 206.355 66.246 206.093 66.004C205.851 65.7419 205.73 65.4395 205.73 65.0968C205.73 64.754 205.851 64.4617 206.093 64.2198C206.355 63.9577 206.657 63.8266 207 63.8266ZM208.694 71.5081C208.694 71.6089 208.653 71.6996 208.573 71.7802C208.512 71.8407 208.431 71.871 208.331 71.871H205.669C205.569 71.871 205.478 71.8407 205.397 71.7802C205.337 71.6996 205.306 71.6089 205.306 71.5081V70.7823C205.306 70.6815 205.337 70.6008 205.397 70.5403C205.478 70.4597 205.569 70.4194 205.669 70.4194H206.032V68.4839H205.669C205.569 68.4839 205.478 68.4536 205.397 68.3931C205.337 68.3125 205.306 68.2218 205.306 68.121V67.3952C205.306 67.2944 205.337 67.2137 205.397 67.1532C205.478 67.0726 205.569 67.0323 205.669 67.0323H207.605C207.706 67.0323 207.786 67.0726 207.847 67.1532C207.927 67.2137 207.968 67.2944 207.968 67.3952V70.4194H208.331C208.431 70.4194 208.512 70.4597 208.573 70.5403C208.653 70.6008 208.694 70.6815 208.694 70.7823V71.5081Z" fill="#1A2233"/>
</svg>
