<svg width="248" height="39" viewBox="0 0 248 39" fill="none" xmlns="http://www.w3.org/2000/svg">
<path d="M23.4091 37.0864L0.568182 24.2955V19.7273L23.4091 6.93636V11.2761L4.22273 22.0114L23.4091 32.7466V37.0864ZM43.9838 19.7273L49.0088 1.45454H57.6426L47.3642 19.7273H43.9838ZM30.2792 19.7273L35.3042 1.45454H43.9381L33.6597 19.7273H30.2792ZM73.6948 38V5.56591H62.2743V1.45454H89.6834V5.56591H78.263V38H73.6948ZM96.5535 38V33.8886H105.69V5.56591H96.5535V1.45454H119.394V5.56591H110.258V33.8886H119.394V38H96.5535ZM140.883 38.4568C136.619 38.4568 133.345 37.33 131.061 35.0764C128.777 32.7923 127.635 29.5489 127.635 25.3461V14.2911C127.635 10.0275 128.747 6.75364 130.97 4.46954C133.193 2.155 136.36 0.997727 140.472 0.997727C144.218 0.997727 147.065 1.94182 149.014 3.83C150.994 5.71818 152.09 8.59614 152.303 12.4639L147.735 12.9207C147.491 10.0884 146.806 8.07841 145.679 6.89068C144.553 5.70295 142.801 5.10909 140.426 5.10909C137.472 5.10909 135.355 5.82477 134.076 7.25614C132.828 8.65705 132.203 11.002 132.203 14.2911V25.3461C132.203 28.6048 132.873 30.9193 134.213 32.2898C135.553 33.6602 137.776 34.3455 140.883 34.3455C143.685 34.3455 145.679 33.5689 146.867 32.0157C148.055 30.432 148.649 27.7825 148.649 24.067H139.969V19.9557H153.217V24.8893C153.217 29.2443 152.151 32.5943 150.019 34.9393C147.887 37.2843 144.842 38.4568 140.883 38.4568ZM160.544 38V1.45454H173.38C177.187 1.45454 180.035 2.26159 181.923 3.87568C183.811 5.45932 184.755 7.86523 184.755 11.0934V15.5702C184.755 18.7984 183.796 21.2195 181.877 22.8336C179.989 24.4173 177.141 25.2091 173.335 25.2091H165.112V38H160.544ZM165.112 21.1891H173.335C175.801 21.1891 177.553 20.7627 178.588 19.91C179.654 19.0268 180.187 17.5498 180.187 15.4789V11.2761C180.187 9.20523 179.654 7.74341 178.588 6.89068C177.553 6.0075 175.801 5.56591 173.335 5.56591H165.112V21.1891ZM203.959 19.7273L208.984 1.45454H217.618L207.34 19.7273H203.959ZM190.255 19.7273L195.28 1.45454H203.914L193.635 19.7273H190.255ZM224.534 37.0864V32.7466L243.72 22.0114L224.534 11.2761V6.93636L247.375 19.7273V24.2955L224.534 37.0864Z" fill="white"/>
</svg>
