<svg width="216" height="47" viewBox="0 0 216 47" fill="none" xmlns="http://www.w3.org/2000/svg">
<path d="M23.4091 36.0864L0.568182 23.2955V18.7273L23.4091 5.93636V10.2761L4.22273 21.0114L23.4091 31.7466V36.0864ZM43.9838 18.7273L49.0088 0.454544H57.6426L47.3642 18.7273H43.9838ZM30.2792 18.7273L35.3042 0.454544H43.9381L33.6597 18.7273H30.2792ZM81.3693 37L75.9789 15.2098L70.5884 37H66.0202L61.0866 0.454544H65.6091L68.8982 30.2848L73.6948 9.59091H78.4914L83.288 30.2848L86.5771 0.454544H90.8711L85.9375 37H81.3693ZM95.1831 46.1364V41.5682H120.765V46.1364H95.1831ZM128.549 37V0.454544H141.385C145.192 0.454544 148.04 1.26159 149.928 2.87568C151.816 4.45932 152.76 6.86523 152.76 10.0934V14.5702C152.76 17.7984 151.801 20.2195 149.882 21.8336C147.994 23.4173 145.146 24.2091 141.34 24.2091H133.117V37H128.549ZM133.117 20.1891H141.34C143.806 20.1891 145.558 19.7627 146.593 18.91C147.659 18.0268 148.192 16.5498 148.192 14.4789V10.2761C148.192 8.20523 147.659 6.74341 146.593 5.89068C145.558 5.0075 143.806 4.56591 141.34 4.56591H133.117V20.1891ZM171.964 18.7273L176.989 0.454544H185.623L175.345 18.7273H171.964ZM158.26 18.7273L163.285 0.454544H171.919L161.64 18.7273H158.26ZM192.539 36.0864V31.7466L211.725 21.0114L192.539 10.2761V5.93636L215.38 18.7273V23.2955L192.539 36.0864Z" fill="#1A2233"/>
</svg>
