<svg width="48" height="49" viewBox="0 0 48 49" fill="none" xmlns="http://www.w3.org/2000/svg">
<g clip-path="url(#clip0_1647_1199)">
<circle cx="24" cy="24.2422" r="24" fill="#101010"/>
<path d="M33.5971 19.44C33.475 19.0004 33.2552 18.6219 32.9377 18.3045C32.6203 17.987 32.2418 17.7672 31.8022 17.6451C31.1673 17.4742 29.6777 17.3521 27.3333 17.2788L24 17.2422L20.6667 17.2788C18.3223 17.3521 16.8327 17.4742 16.1978 17.6451C15.7582 17.7672 15.3797 17.987 15.0623 18.3045C14.7448 18.6219 14.525 19.0004 14.4029 19.44C14.232 20.0993 14.1099 21.1006 14.0366 22.4437C14.0122 23.1274 14 23.7379 14 24.2752L14.0366 26.1067C14.1099 27.4742 14.232 28.4876 14.4029 29.1469C14.525 29.5621 14.7448 29.9284 15.0623 30.2459C15.3797 30.5633 15.7582 30.7831 16.1978 30.9052C16.8327 31.0761 18.3223 31.1982 20.6667 31.2715L24 31.3081L27.3333 31.2715C29.6777 31.1982 31.1673 31.0761 31.8022 30.9052C32.2418 30.7831 32.6203 30.5633 32.9377 30.2459C33.2552 29.9284 33.475 29.5621 33.5971 29.1469C33.768 28.4876 33.8901 27.4742 33.9634 26.1067L34 24.2752L33.9634 22.4437C33.8901 21.1006 33.768 20.0993 33.5971 19.44ZM21.9487 27.2788V21.3081L27.1868 24.2752L21.9487 27.2788Z" fill="white"/>
</g>
<defs>
<clipPath id="clip0_1647_1199">
<rect width="48" height="48" fill="white" transform="translate(0 0.242188)"/>
</clipPath>
</defs>
</svg>
