<svg width="24" height="24" viewBox="0 0 24 24" fill="none" xmlns="http://www.w3.org/2000/svg">
<path fill-rule="evenodd" clip-rule="evenodd" d="M12.0001 0.333252C8.24453 0.333252 5.19476 3.38311 5.19476 7.13881C5.19476 10.8945 8.24453 13.9444 12.0001 13.9444C15.7557 13.9444 18.8054 10.8945 18.8054 7.13881C18.8054 3.38311 15.7557 0.333252 12.0001 0.333252ZM12.0001 2.2777C14.6834 2.2777 16.8611 4.45548 16.8611 7.13881C16.8611 9.82214 14.6834 11.9999 12.0001 11.9999C9.31685 11.9999 7.13914 9.82214 7.13914 7.13881C7.13914 4.45548 9.31685 2.2777 12.0001 2.2777Z" fill="#1A2233"/>
<path fill-rule="evenodd" clip-rule="evenodd" d="M23.6668 21.7221C23.6668 19.1433 22.4374 16.6706 20.2497 14.8477C18.0619 13.024 15.094 11.9999 12.0001 11.9999C8.90622 11.9999 5.93838 13.024 3.75064 14.8477C1.56291 16.6706 0.333496 19.1433 0.333496 21.7221C0.333496 22.3217 0.333496 22.6944 0.333496 22.6944C0.333496 23.2315 0.856568 23.6666 1.50054 23.6666H22.4998C23.1438 23.6666 23.6668 23.2315 23.6668 22.6944V21.7221ZM21.3327 21.7221C21.3327 19.6594 20.3502 17.6809 18.599 16.2226C16.8491 14.7635 14.4755 13.9444 12.0001 13.9444C9.52474 13.9444 7.15125 14.7635 5.40131 16.2226C3.6501 17.6809 2.66759 19.6594 2.66759 21.7221H21.3327Z" fill="#1A2233"/>
</svg>
